PathFileType	4	(X/Y/Z)	./resultDataOpenSim/trcMotMarkerGrf/sub09/qtm-13-06.trc
DataRate	CameraRate	NumFrames	NumMarkers	Units	OrigDataRate	OrigDataStartFrame	OrigNumFrames
250.000000	250.000000	12	24	m	250.000000	1	478
Frame#	Time	L.Toe.Tip			R.Toe.Tip			L.Ankle.Lat			R.Ankle.Lat			L.Ankle.Med			R.Ankle.Med			L.Heel			R.Heel			L.Knee.Lat			R.Knee.Lat			L.Knee.Med			R.Knee.Med			L.Thigh.Upper			R.Thigh.Upper			L.ASIS			R.ASIS			V.Sacral			L.Acromium			R.Acromium			C7			L.Elbow			R.Elbow			L.Wrist.Lat			R.Wrist.Lat
		X1	Y1	Z1	X2	Y2	Z2	X3	Y3	Z3	X4	Y4	Z4	X5	Y5	Z5	X6	Y6	Z6	X7	Y7	Z7	X8	Y8	Z8	X9	Y9	Z9	X10	Y10	Z10	X11	Y11	Z11	X12	Y12	Z12	X13	Y13	Z13	X14	Y14	Z14	X15	Y15	Z15	X16	Y16	Z16	X17	Y17	Z17	X18	Y18	Z18	X19	Y19	Z19	X20	Y20	Z20	X21	Y21	Z21	X22	Y22	Z22	X23	Y23	Z23	X24	Y24	Z24

1	0	-1.5173924	0.036570323	-0.033467372	-0.94301203	0.077885132	0.10593492	-1.6651422	0.082546548	-0.06049282	-1.0945931	0.067889429	0.12085584	-1.6371508	0.097932944	0.032969329	-1.0788795	0.10748821	0.032072282	NaN	NaN	NaN	-1.1454986	0.032961103	0.059715907	-1.5061675	0.4699888	-0.12047523	-1.1428573	0.52180875	0.1733887	-1.5041691	0.47049368	0.0055804055	-1.1297278	0.5079825	0.048176259	-1.3842827	0.87362674	-0.16204205	-1.3492796	0.8678038	0.20784479	-1.2768128	0.94431342	-0.1104199	-1.2664454	0.94940443	0.13032505	-1.4323626	1.0121959	0.020347145	-1.2369922	1.3985282	-0.14228968	-1.268483	1.405867	0.1858883	-1.3135891	1.4581322	0.020546791	-1.3544837	1.0409357	-0.21931353	-1.4492667	1.0918398	0.25993833	-1.1116239	0.91574333	-0.20392238	-1.3645269	0.83806997	0.3094118
2	0.004	-1.5173481	0.036543152	-0.033505219	-0.92510902	0.080741938	0.10672411	-1.6649154	0.083531188	-0.060308766	-1.0764991	0.067414498	0.12170603	-1.636663	0.098715037	0.033010439	-1.0615164	0.10742156	0.032951726	NaN	NaN	NaN	-1.1270686	0.031971298	0.059733575	-1.5037974	0.47011216	-0.12056077	-1.13623	0.52034242	0.17354143	-1.5016254	0.47048304	0.005539547	-1.123033	0.5064124	0.048351191	-1.3786999	0.87248563	-0.16187777	-1.3433024	0.86623046	0.20811052	-1.2707448	0.94277023	-0.11036716	-1.2599908	0.94784937	0.13047339	-1.4261495	1.0106249	0.020578512	-1.2307698	1.3971433	-0.14181064	-1.2628533	1.4043148	0.18632797	-1.3078008	1.4563322	0.020240268	-1.3477119	1.0386848	-0.22132312	-1.443515	1.0906684	0.26007914	-1.103264	0.91599657	-0.20320927	-1.3595841	0.83646553	0.31010368
3	0.008	-1.5173024	0.036519609	-0.033547796	-0.90738238	0.083765723	0.10750214	-1.6646249	0.08451926	-0.060197125	-1.0587058	0.067037365	0.12254861	-1.6362011	0.099477519	0.033031316	-1.0443652	0.10745867	0.033841966	NaN	NaN	NaN	-1.1088901	0.031057791	0.05979732	-1.5012615	0.47023809	-0.12064519	-1.1298871	0.51877225	0.17370453	-1.4989992	0.47046484	0.0055172069	-1.1164224	0.5047847	0.04849926	-1.3730907	0.87135228	-0.16169048	-1.3372684	0.86462735	0.20838006	-1.2646841	0.94125383	-0.11031635	-1.253524	0.9462817	0.13061152	-1.4199234	1.0090513	0.020801179	-1.2245444	1.3957537	-0.14135554	-1.2571679	1.4027693	0.18676023	-1.3019456	1.454558	0.020035412	-1.3406748	1.0365351	-0.22241084	-1.4375668	1.0893837	0.2600647	-1.0949428	0.91621921	-0.20251733	-1.3546425	0.83487087	0.31078258
4	0.012	-1.5172522	0.036500804	-0.033596813	-0.89002493	0.087062487	0.10832233	-1.6642579	0.085514772	-0.060175811	-1.0412651	0.066866931	0.12342094	-1.6357283	0.10025134	0.033019521	-1.0275827	0.10764733	0.034747235	NaN	NaN	NaN	-1.0906804	0.030062847	0.06050712	-1.4984656	0.4703586	-0.12071634	-1.1237955	0.51708291	0.17388712	-1.4962739	0.47042803	0.0055284629	-1.109909	0.50307015	0.048610821	-1.3674355	0.87022574	-0.16146731	-1.3311309	0.86298903	0.20865172	-1.2586213	0.93977084	-0.11027021	-1.2470205	0.9447002	0.13073297	-1.4136735	1.0074892	0.020996456	-1.2182855	1.3943588	-0.14092431	-1.2514094	1.401227	0.18719199	-1.2959615	1.4528814	0.020038252	-1.3333495	1.0345112	-0.22252158	-1.4313525	1.0879217	0.25990187	-1.0866717	0.91638716	-0.20184653	-1.3496674	0.83327987	0.31145068
5	0.016	-1.5171958	0.036485948	-0.033650892	-0.87319538	0.090629211	0.10920597	-1.6638326	0.086536657	-0.060224709	-1.0240005	0.067028162	0.124413	-1.6351973	0.10107655	0.032967852	-1.0112905	0.10798268	0.035663256	NaN	NaN	NaN	-1.0721593	0.028824989	0.062328944	-1.4954102	0.47045079	-0.12077188	-1.1177682	0.51532506	0.17408023	-1.4934234	0.47037373	0.0055705874	-1.1034634	0.50127904	0.048684348	-1.3617388	0.86910498	-0.16120593	-1.3248703	0.86132849	0.20891806	-1.2525484	0.93831336	-0.11023375	-1.2404829	0.94311621	0.1308366	-1.4073939	1.0059403	0.021182914	-1.2119613	1.3929658	-0.14050074	-1.2455882	1.3996813	0.18762887	-1.2898466	1.4513393	0.020264492	-1.3258998	1.0325948	-0.22221207	-1.4250199	1.0863299	0.25973007	-1.078455	0.9164827	-0.20118411	-1.3446296	0.83168511	0.31211625
6	0.02	-1.5171326	0.036472767	-0.033707081	-0.85694729	0.094387082	0.11008496	-1.6633591	0.087599184	-0.060327356	-1.0065952	0.067652998	0.12565536	-1.6346094	0.10194741	0.032869982	-0.99555551	0.10843879	0.036580692	NaN	NaN	NaN	-1.0536713	0.027469341	0.064780775	-1.4921344	0.47048723	-0.12081697	-1.1117016	0.51354826	0.17426554	-1.4903656	0.47030934	0.0056176575	-1.0970482	0.4994403	0.048717054	-1.3560111	0.86798909	-0.16091177	-1.3184789	0.85965928	0.20917528	-1.2464603	0.9368728	-0.11020802	-1.2339197	0.94153963	0.1309227	-1.4010515	1.0043697	0.021492408	-1.2055507	1.3915857	-0.14006709	-1.2397058	1.3981273	0.18807295	-1.2836429	1.4498876	0.020628435	-1.3184529	1.0307635	-0.22191588	-1.4187395	1.0847044	0.25965254	-1.0702819	0.91649564	-0.20052331	-1.3395152	0.83008563	0.31277889
7	0.024	-1.5170598	0.036459673	-0.033763398	-0.84128712	0.098239889	0.11087296	-1.662838	0.088697506	-0.060476183	-0.98897611	0.068730972	0.12719915	-1.6339872	0.10283885	0.032721218	-0.98040821	0.10897988	0.037485306	NaN	NaN	NaN	-1.0358195	0.026243913	0.067022464	-1.488659	0.47045725	-0.12084838	-1.1055761	0.51178669	0.17444355	-1.4870228	0.47023014	0.0056385612	-1.0906436	0.49757881	0.0487127	-1.3502575	0.86687535	-0.16059172	-1.3119565	0.85799039	0.20942824	-1.2403561	0.93544742	-0.110189	-1.2273143	0.93997609	0.13098847	-1.3945733	1.0027455	0.022197703	-1.1990574	1.3902263	-0.13961145	-1.2337488	1.3965648	0.18852532	-1.2773883	1.448464	0.021039091	-1.3110341	1.0289928	-0.22170481	-1.4125346	1.0830983	0.2596675	-1.0621363	0.91642649	-0.19986689	-1.3343076	0.82848585	0.31343036
8	0.028	-1.5169738	0.036448391	-0.033821311	-0.82621581	0.10210543	0.11152725	-1.6622662	0.089832986	-0.060666574	-0.971725	0.069944666	0.12884797	-1.6333282	0.10375665	0.032522716	-0.96584054	0.10956953	0.038366267	NaN	NaN	NaN	-1.0188551	0.025262763	0.068766728	-1.4849864	0.47037046	-0.12086177	-1.0993471	0.51006833	0.17463141	-1.4833743	0.47011861	0.0056235786	-1.0842472	0.49570854	0.048687425	-1.3444767	0.86576008	-0.16024885	-1.3052975	0.85632392	0.20968303	-1.2342352	0.93404016	-0.11017682	-1.2206363	0.93843093	0.13103201	-1.3878898	1.0010775	0.023531401	-1.1925164	1.388886	-0.13913615	-1.2276972	1.3949984	0.18898254	-1.2710966	1.4470369	0.021453152	-1.3036253	1.027262	-0.22149373	-1.4063475	1.0815181	0.25973035	-1.0540033	0.91628027	-0.1992119	-1.3289849	0.82689286	0.31406575
9	0.032	-1.5168719	0.036442114	-0.033885153	-0.81172857	0.10591428	0.1120398	-1.6616345	0.091015438	-0.060902548	-0.95567386	0.070897734	0.13025462	-1.6326109	0.10472051	0.032282502	-0.95179252	0.11019304	0.039224188	NaN	NaN	NaN	-1.0027363	0.02453634	0.070184123	-1.4811331	0.470239	-0.12085972	-1.0929352	0.50841265	0.17485618	-1.4794615	0.46995491	0.005586531	-1.0778615	0.49384057	0.048664224	-1.3386628	0.86464159	-0.15988528	-1.2984844	0.85465538	0.20993947	-1.2280933	0.9326552	-0.11017648	-1.2138633	0.93690969	0.1310595	-1.3810373	0.99941045	0.025324679	-1.1859738	1.3875591	-0.13865671	-1.2215546	1.3934354	0.18944077	-1.2647673	1.4456069	0.021866183	-1.2962156	1.0255663	-0.22123289	-1.400133	1.079956	0.25981112	-1.0458685	0.91605563	-0.19854355	-1.3235334	0.82530923	0.31468511
10	0.036	-1.516752	0.036442463	-0.033958826	-0.79781127	0.10959246	0.11240672	-1.6609322	0.092253294	-0.061194756	-0.94100698	0.071550329	0.13124346	-1.6318275	0.10572789	0.032007772	-0.93820436	0.11085446	0.040058483	NaN	NaN	NaN	-0.98739074	0.02405271	0.071439641	-1.4771319	0.47006889	-0.12085259	-1.086264	0.50683066	0.17516488	-1.475329	0.46973711	0.0055400214	-1.0714795	0.49199031	0.048662743	-1.3328071	0.86352096	-0.15950312	-1.291506	0.85298024	0.21019353	-1.2219176	0.93129272	-0.11019159	-1.2069895	0.9354141	0.13108296	-1.3741646	0.99779267	0.027013431	-1.1794467	1.3862455	-0.13818142	-1.2153508	1.3918793	0.18989998	-1.2583991	1.4441887	0.022291774	-1.2888053	1.0239106	-0.22092263	-1.3938709	1.0784063	0.25990552	-1.0377438	0.91574761	-0.1978576	-1.3179596	0.82373173	0.31528712
11	0.04	-1.5166134	0.036448644	-0.034042172	-0.78444377	0.11304881	0.11262663	-1.6601577	0.093557273	-0.061547822	-0.92726369	0.072161678	0.13189069	-1.6309856	0.10676953	0.031697765	-0.92508952	0.11153913	0.040851091	NaN	NaN	NaN	-0.97274536	0.023773801	0.072568882	-1.4729917	0.46986139	-0.12085436	-1.0791548	0.50535445	0.17561917	-1.4709869	0.46948585	0.0054860211	-1.065085	0.49017704	0.048692292	-1.3268963	0.86239971	-0.1590981	-1.2843687	0.85129971	0.210444	-1.2156889	0.92995032	-0.11022239	-1.2000343	0.93394216	0.1311082	-1.3673945	0.9962408	0.028178704	-1.1729162	1.3849527	-0.1377037	-1.209095	1.3903281	0.19036206	-1.2519939	1.4427919	0.022742807	-1.2813966	1.0222995	-0.22056603	-1.387558	1.076865	0.26001456	-1.0297023	0.91536247	-0.19718356	-1.3122912	0.82215979	0.31586861
12	0.044	-1.5164572	0.036459049	-0.03413047	-0.7716212	0.116188	0.11272292	-1.6593217	0.094933748	-0.061953114	-0.91402845	0.072874406	0.13235719	-1.6300813	0.1078542	0.031346358	-0.91251275	0.11220145	0.041573808	NaN	NaN	NaN	-0.95865562	0.023653618	0.073582764	-1.4686771	0.46961385	-0.12087628	-1.071318	0.50404638	0.17625719	-1.4664738	0.46921172	0.0054371328	-1.0586601	0.48842285	0.048754118	-1.3209112	0.86128026	-0.158657	-1.2770863	0.84961939	0.21069339	-1.2093898	0.92863027	-0.11026379	-1.1930345	0.93249332	0.13112959	-1.360731	0.99473287	0.028870443	-1.166361	1.3836882	-0.13721798	-1.2027595	1.3887806	0.19082801	-1.2455541	1.4414159	0.023222973	-1.2739953	1.0207406	-0.22016938	-1.3812009	1.07533	0.26013028	-1.021824	0.91491853	-0.19655873	-1.3065544	0.82059795	0.31643176
